HIERARCHY
ROOT Hips
{
	OFFSET 0.00000 0.00000 0.00000
	CHANNELS 6 Xposition Yposition Zposition Zrotation Yrotation Xrotation 
	JOINT LHipJoint
	{
		OFFSET 0 0 0
		CHANNELS 3 Zrotation Yrotation Xrotation
		JOINT LeftUpLeg
		{
			OFFSET 1.58161 -1.81893 0.78828
			CHANNELS 3 Zrotation Yrotation Xrotation
			JOINT LeftLeg
			{
				OFFSET 2.53374 -6.96141 0.00000
				CHANNELS 3 Zrotation Yrotation Xrotation
				JOINT LeftFoot
				{
					OFFSET 2.63509 -7.23986 0.00000
					CHANNELS 3 Zrotation Yrotation Xrotation
					JOINT LeftToeBase
					{
						OFFSET 0.14115 -0.38781 2.05350
						CHANNELS 3 Zrotation Yrotation Xrotation
						End Site
						{
							OFFSET 0.00000 -0.00000 1.05543
						}
					}
				}
			}
		}
	}
	JOINT RHipJoint
	{
		OFFSET 0 0 0
		CHANNELS 3 Zrotation Yrotation Xrotation
		JOINT RightUpLeg
		{
			OFFSET -1.11138 -1.81893 0.78828
			CHANNELS 3 Zrotation Yrotation Xrotation
			JOINT RightLeg
			{
				OFFSET -2.58392 -7.09926 0.00000
				CHANNELS 3 Zrotation Yrotation Xrotation
				JOINT RightFoot
				{
					OFFSET -2.66423 -7.31992 0.00000
					CHANNELS 3 Zrotation Yrotation Xrotation
					JOINT RightToeBase
					{
						OFFSET -0.18831 -0.51739 2.12114
						CHANNELS 3 Zrotation Yrotation Xrotation
						End Site
						{
							OFFSET -0.00000 -0.00000 1.09845
						}
					}
				}
			}
		}
	}
	JOINT LowerBack
	{
		OFFSET 0 0 0
		CHANNELS 3 Zrotation Yrotation Xrotation
		JOINT Spine
		{
			OFFSET -0.01511 1.97958 -0.08829
			CHANNELS 3 Zrotation Yrotation Xrotation
			JOINT Spine1
			{
				OFFSET 0.08344 1.97334 -0.04330
				CHANNELS 3 Zrotation Yrotation Xrotation
				JOINT Neck
				{
					OFFSET 0 0 0
					CHANNELS 3 Zrotation Yrotation Xrotation
					JOINT Neck1
					{
						OFFSET 0.00559 1.76246 0.31246
						CHANNELS 3 Zrotation Yrotation Xrotation
						JOINT Head
						{
							OFFSET -0.07011 1.80354 -0.30524
							CHANNELS 3 Zrotation Yrotation Xrotation
							End Site
							{
								OFFSET -0.02385 1.83547 -0.13906
							}
						}
					}
				}
				JOINT LeftShoulder
				{
					OFFSET 0 0 0
					CHANNELS 3 Zrotation Yrotation Xrotation
					JOINT LeftArm
					{
						OFFSET 3.20667 1.30156 -0.60240
						CHANNELS 3 Zrotation Yrotation Xrotation
						JOINT LeftForeArm
						{
							OFFSET 4.95663 -0.00000 0.00000
							CHANNELS 3 Zrotation Yrotation Xrotation
							JOINT LeftHand
							{
								OFFSET 3.38177 -0.00000 0.00000
								CHANNELS 3 Zrotation Yrotation Xrotation
								JOINT LeftFingerBase
								{
									OFFSET 0 0 0
									CHANNELS 3 Zrotation Yrotation Xrotation
									JOINT LeftHandIndex1
									{
										OFFSET 0.66291 -0.00000 0.00000
										CHANNELS 3 Zrotation Yrotation Xrotation
										End Site
										{
											OFFSET 0.53445 -0.00000 0.00000
										}
									}
								}
								JOINT LThumb
								{
									OFFSET 0 0 0
									CHANNELS 3 Zrotation Yrotation Xrotation
									End Site
									{
										OFFSET 0.54261 -0.00000 0.54261
									}
								}
							}
						}
					}
				}
				JOINT RightShoulder
				{
					OFFSET 0 0 0
					CHANNELS 3 Zrotation Yrotation Xrotation
					JOINT RightArm
					{
						OFFSET -3.06877 1.34672 -0.60964
						CHANNELS 3 Zrotation Yrotation Xrotation
						JOINT RightForeArm
						{
							OFFSET -5.08365 -0.00000 0.00000
							CHANNELS 3 Zrotation Yrotation Xrotation
							JOINT RightHand
							{
								OFFSET -3.35984 -0.00000 0.00000
								CHANNELS 3 Zrotation Yrotation Xrotation
								JOINT RightFingerBase
								{
									OFFSET 0 0 0
									CHANNELS 3 Zrotation Yrotation Xrotation
									JOINT RightHandIndex1
									{
										OFFSET -0.82076 -0.00000 0.00000
										CHANNELS 3 Zrotation Yrotation Xrotation
										End Site
										{
											OFFSET -0.66172 -0.00000 0.00000
										}
									}
								}
								JOINT RThumb
								{
									OFFSET 0 0 0
									CHANNELS 3 Zrotation Yrotation Xrotation
									End Site
									{
										OFFSET -0.67182 -0.00000 0.67182
									}
								}
							}
						}
					}
				}
			}
		}
	}
}
MOTION
Frames: 15
Frame Time: .0083333
-8.9037 17.9471 5.7293 -31.2175 79.3400 -16.1351 0.0000 0.0000 0.0000 -5.7883 -3.1010 -27.5620 2.3214 9.5057 27.3904 0.3968 -3.2434 -11.2275 0.8605 -5.9152 -16.5387 0.0000 0.0000 0.0000 14.3844 12.2222 -27.8002 -1.9501 -8.7613 25.0516 -0.1405 0.4879 -6.9213 -0.0333 1.1781 -3.2389 -1.7146 0.6828 5.2482 4.0131 0.9675 5.5344 5.1023 0.4199 2.6842 1.9729 0.0477 -11.8648 -4.7917 4.4423 44.6369 -1.6360 2.1526 19.3519 -0.0000 0.0000 0.0000 -93.9915 -18.8099 80.3332 33.2608 -43.5295 -13.6013 -0.0000 0.0000 -63.1606 15.9852 62.6538 14.2761 -7.1250 0.0000 -0.0000 166.9221 4.1235 12.4383 -0.0000 0.0000 0.0000 84.7377 16.0904 74.3754 -36.7457 46.0192 -16.0568 0.0000 -0.0000 -63.3766 -42.9706 -13.6341 12.3849 7.1250 -0.0000 -0.0000 -15.1529 -47.7275 1.0424
-8.9023 17.9479 5.7273 -30.9683 79.3848 -15.8751 0.0000 0.0000 0.0000 -5.8699 -3.1497 -27.5519 2.3173 9.4979 27.3657 0.3973 -3.1800 -11.2389 0.8881 -6.0069 -16.8045 0.0000 0.0000 0.0000 14.2795 12.3172 -27.7714 -1.9491 -8.7593 25.0453 -0.1427 0.3165 -7.0270 -0.0360 1.2256 -3.3696 -1.7417 0.6789 5.2096 3.9674 0.9609 5.5423 5.0707 0.4154 2.7149 1.9957 0.0525 -11.8717 -4.7504 4.4176 44.6180 -1.6244 2.1507 19.3378 0.0000 0.0000 0.0000 -93.8570 -18.8314 80.3854 33.3528 -43.5995 -13.6648 -0.0000 0.0000 -63.3407 16.3162 62.7546 14.5877 -7.1250 0.0000 -0.0000 167.0007 4.2497 12.3280 0.0000 0.0000 0.0000 84.7790 16.1103 74.4187 -36.8071 46.0602 -16.1010 0.0000 -0.0000 -63.5294 -43.0456 -13.5597 12.3520 7.1250 -0.0000 -0.0000 -15.2175 -47.6471 1.0162
-8.9010 17.9478 5.7253 -31.0599 79.4002 -15.9355 0.0000 0.0000 0.0000 -5.8584 -3.2031 -27.5455 2.3118 9.4873 27.3320 0.3996 -3.1483 -11.2750 0.9216 -6.1163 -17.1221 0.0000 0.0000 0.0000 14.2653 12.3294 -27.7958 -1.9497 -8.7605 25.0490 -0.1443 0.2960 -7.0752 -0.0338 1.1874 -3.2646 -1.7251 0.6667 5.1714 3.9594 0.9447 5.5356 5.0537 0.4076 2.7311 1.9981 0.0790 -11.8211 -4.7344 4.4419 44.5657 -1.6116 2.1622 19.2891 -0.0000 -0.0000 0.0000 -93.7566 -18.8249 80.3902 33.4355 -43.6621 -13.7218 -0.0000 0.0000 -63.4594 16.4596 62.6257 14.7010 -7.1250 0.0000 -0.0000 167.0660 4.1381 12.2902 -0.0000 -0.0000 0.0000 84.7979 16.0986 74.4784 -36.8443 46.0850 -16.1278 0.0000 -0.0000 -63.6107 -42.9920 -13.5116 12.2879 7.1250 -0.0000 -0.0000 -15.1549 -47.5753 0.9845
-8.9003 17.9471 5.7243 -31.1447 79.4100 -15.9967 0.0000 0.0000 0.0000 -5.8537 -3.1940 -27.5588 2.3075 9.4792 27.3060 0.4012 -3.1665 -11.2968 0.9540 -6.2199 -17.4239 0.0000 0.0000 0.0000 14.2682 12.3060 -27.8243 -1.9498 -8.7607 25.0497 -0.1437 0.3316 -7.0479 -0.0293 1.1054 -3.0389 -1.7326 0.6611 5.1371 3.9725 0.9368 5.5411 5.0726 0.4026 2.7565 1.9368 0.0894 -11.8199 -4.7108 4.4657 44.5525 -1.5839 2.1638 19.2790 -0.0000 -0.0000 0.0000 -93.7256 -18.8291 80.3636 33.4711 -43.6890 -13.7464 -0.0000 0.0000 -63.5386 16.5325 62.5010 14.7508 -7.1250 0.0000 -0.0000 167.1107 4.0244 12.2734 -0.0000 -0.0000 0.0000 84.8221 16.1223 74.5016 -36.8080 46.0609 -16.1017 0.0000 -0.0000 -63.5845 -42.9623 -13.5420 12.3018 7.1250 -0.0000 -0.0000 -15.1296 -47.6084 0.9953
-8.8996 17.9476 5.7229 -30.9032 79.4448 -15.7702 0.0000 0.0000 0.0000 -5.9355 -3.1722 -27.5474 2.3046 9.4736 27.2882 0.3996 -3.1618 -11.2730 0.9567 -6.2285 -17.4488 0.0000 0.0000 0.0000 14.2063 12.2731 -27.8141 -1.9497 -8.7605 25.0490 -0.1436 0.3301 -7.0470 -0.0331 1.1740 -3.2276 -1.7829 0.6574 5.1426 3.9593 0.9304 5.5488 5.0877 0.3977 2.7619 1.9338 0.0817 -11.8314 -4.7482 4.4774 44.5722 -1.5998 2.1637 19.2983 0.0000 -0.0000 0.0000 -93.7196 -18.8075 80.2915 33.4537 -43.6759 -13.7344 -0.0000 0.0000 -63.5898 16.5194 62.3947 14.7254 -7.1250 0.0000 -0.0000 167.1268 3.9204 12.2827 0.0000 -0.0000 0.0000 84.8474 16.1462 74.5387 -36.7767 46.0399 -16.0791 0.0000 -0.0000 -63.5697 -42.9209 -13.6302 12.3606 7.1250 -0.0000 -0.0000 -15.1015 -47.7129 1.0331
-8.8988 17.9488 5.7207 -30.7417 79.4813 -15.5984 0.0000 0.0000 0.0000 -5.9938 -3.1832 -27.5566 2.3006 9.4660 27.2642 0.3957 -3.1833 -11.2155 0.9270 -6.1336 -17.1724 0.0000 0.0000 0.0000 14.1489 12.2458 -27.8371 -1.9506 -8.7624 25.0549 -0.1441 0.3180 -7.0619 -0.0429 1.3374 -3.6778 -1.7791 0.6626 5.1385 3.9173 0.9370 5.5273 5.0408 0.4019 2.7414 2.0376 0.0687 -11.7998 -4.8047 4.4549 44.5849 -1.6512 2.1673 19.3011 -0.0000 0.0000 0.0000 -93.6910 -18.7616 80.2788 33.4157 -43.6471 -13.7082 -0.0000 0.0000 -63.5888 17.2465 62.3939 15.3815 -7.1250 0.0000 -0.0000 167.3419 3.9875 12.0505 -0.0000 0.0000 0.0000 84.9368 16.1291 74.5300 -36.7178 46.0005 -16.0367 0.0000 -0.0000 -63.5000 -42.7907 -13.7277 12.3898 7.1250 -0.0000 -0.0000 -14.9840 -47.8118 1.0620
-8.8988 17.9496 5.7173 -30.7101 79.5758 -15.5410 0.0000 0.0000 0.0000 -6.0417 -3.2750 -27.5802 2.2955 9.4562 27.2332 0.3922 -3.2194 -11.1625 0.8945 -6.0281 -16.8658 0.0000 0.0000 0.0000 14.0844 12.1745 -27.8887 -1.9519 -8.7652 25.0636 -0.1442 0.3171 -7.0656 -0.0464 1.3904 -3.8237 -1.7779 0.6622 5.1136 3.8961 0.9360 5.5105 5.0178 0.4018 2.7380 2.0946 0.0391 -11.7530 -4.8447 4.4026 44.5441 -1.6904 2.1524 19.2596 0.0000 0.0000 0.0000 -93.6814 -18.7529 80.3940 33.4310 -43.6587 -13.7187 -0.0000 0.0000 -63.6205 18.3740 62.3578 16.3960 -7.1250 0.0000 -0.0000 167.6816 4.0663 11.6925 0.0000 0.0000 0.0000 85.0080 16.1111 74.4524 -36.6741 45.9712 -16.0053 0.0000 -0.0000 -63.4438 -42.8624 -13.7677 12.4544 7.1250 -0.0000 -0.0000 -15.0637 -47.8767 1.0925
-8.8986 17.9493 5.7123 -30.4750 79.7215 -15.3098 0.0000 0.0000 0.0000 -6.1576 -3.4146 -27.5666 2.2908 9.4471 27.2043 0.3917 -3.1901 -11.1566 0.8944 -6.0277 -16.8648 0.0000 0.0000 0.0000 13.9493 12.1022 -27.9048 -1.9538 -8.7691 25.0756 -0.1443 0.2820 -7.0793 -0.0364 1.2307 -3.3838 -1.8290 0.6442 5.1149 3.8873 0.9105 5.5068 5.0384 0.3874 2.7357 2.0854 0.0141 -11.6994 -4.8841 4.3777 44.4928 -1.7116 2.1372 19.2098 -0.0000 -0.0000 0.0000 -93.6940 -18.7400 80.4861 33.4662 -43.6853 -13.7430 -0.0000 0.0000 -63.6321 18.6297 62.1278 16.5944 -7.1250 0.0000 -0.0000 167.8042 3.8722 11.6154 -0.0000 -0.0000 0.0000 85.0462 16.0874 74.3782 -36.6306 45.9420 -15.9740 0.0000 -0.0000 -63.3692 -42.8616 -13.7730 12.4586 7.1250 -0.0000 -0.0000 -15.0637 -47.8833 1.0950
-8.8985 17.9489 5.7084 -30.2016 79.8120 -15.0370 0.0000 0.0000 0.0000 -6.2630 -3.4758 -27.5594 2.2863 9.4386 27.1771 0.3917 -3.1847 -11.1574 0.9087 -6.0745 -17.0008 0.0000 0.0000 0.0000 13.8326 12.0705 -27.9150 -1.9553 -8.7724 25.0859 -0.1441 0.2705 -7.0766 -0.0257 1.0346 -2.8441 -1.8698 0.6316 5.1103 3.8633 0.8924 5.5089 5.0371 0.3771 2.7421 2.0996 0.0129 -11.6816 -4.8943 4.3725 44.4703 -1.7197 2.1364 19.1901 0.0000 -0.0000 0.0000 -93.6989 -18.7265 80.4500 33.4525 -43.6750 -13.7336 -0.0000 0.0000 -63.5653 18.4063 62.0062 16.3750 -7.1250 0.0000 -0.0000 167.7620 3.7312 11.6903 0.0000 -0.0000 0.0000 85.1698 16.0782 74.3170 -36.4964 45.8516 -15.8777 0.0000 -0.0000 -63.2175 -42.7396 -13.7769 12.4105 7.1250 -0.0000 -0.0000 -14.9393 -47.8645 1.0785
-8.8993 17.9488 5.7071 -30.2486 79.8849 -15.0742 0.0000 0.0000 0.0000 -6.2948 -3.5073 -27.5720 2.2817 9.4297 27.1488 0.3915 -3.2340 -11.1507 0.9304 -6.1445 -17.2044 0.0000 0.0000 0.0000 13.7971 12.0422 -27.9262 -1.9553 -8.7723 25.0856 -0.1449 0.2704 -7.0983 -0.0216 0.9481 -2.6061 -1.8698 0.6339 5.0933 3.8529 0.8957 5.5222 5.0265 0.3784 2.7653 2.1395 -0.0023 -11.6748 -4.9058 4.3306 44.4218 -1.7396 2.1243 19.1542 0.0000 -0.0000 0.0000 -93.7081 -18.7459 80.4204 33.4289 -43.6571 -13.7173 -0.0000 0.0000 -63.5420 17.9532 62.0295 15.9694 -7.1250 0.0000 -0.0000 167.6226 3.7064 11.8358 0.0000 -0.0000 0.0000 85.2581 16.0916 74.2378 -36.3775 45.7710 -15.7924 0.0000 -0.0000 -63.1118 -42.6793 -13.8101 12.4135 7.1250 -0.0000 -0.0000 -14.8827 -47.8950 1.0856
-8.8991 17.9496 5.7059 -30.6141 79.9444 -15.4765 0.0000 0.0000 0.0000 -6.2711 -3.5383 -27.5313 2.2786 9.4238 27.1303 0.3924 -3.2524 -11.1635 0.9664 -6.2591 -17.5382 0.0000 0.0000 0.0000 13.8168 12.0930 -27.8344 -1.9530 -8.7675 25.0706 -0.1466 0.1398 -7.1812 -0.0204 0.9214 -2.5326 -1.7945 0.6609 5.1324 3.8482 0.9349 5.5376 4.9771 0.4013 2.7563 2.1628 -0.0426 -11.6495 -4.8756 4.2423 44.3903 -1.7446 2.0981 19.1184 -0.0000 -0.0000 0.0000 -93.6954 -18.7352 80.4642 33.4266 -43.6554 -13.7157 -0.0000 0.0000 -63.5878 16.8967 61.9423 15.0059 -7.1250 0.0000 -0.0000 167.3226 3.5184 12.1826 -0.0000 -0.0000 0.0000 85.2889 16.0810 74.1389 -36.3556 45.7562 -15.7767 0.0000 -0.0000 -63.0580 -42.6804 -13.8389 12.4385 7.1250 -0.0000 -0.0000 -14.8882 -47.9318 1.0998
-8.8977 17.9513 5.7031 -30.6984 79.9814 -15.6378 0.0000 0.0000 0.0000 -6.2914 -3.5520 -27.4472 2.2780 9.4227 27.1267 0.3899 -3.2633 -11.1257 0.9417 -6.1809 -17.3101 0.0000 0.0000 0.0000 13.7999 12.1319 -27.6987 -1.9488 -8.7586 25.0431 -0.1461 0.0153 -7.2142 -0.0226 0.9713 -2.6698 -1.7021 0.7000 5.2317 3.7957 0.9907 5.5364 4.8660 0.4347 2.6953 2.1791 -0.0997 -11.6286 -4.8201 4.1312 44.4126 -1.7412 2.0666 19.1165 0.0000 -0.0000 0.0000 -93.6258 -18.6656 80.5084 33.4431 -43.6679 -13.7271 -0.0000 0.0000 -63.6679 17.9973 61.9811 16.0024 -7.1250 0.0000 -0.0000 167.6453 3.6641 11.8229 0.0000 -0.0000 0.0000 85.3782 16.0406 74.0563 -36.3726 45.7678 -15.7889 0.0000 -0.0000 -63.0951 -42.8287 -13.7608 12.4342 7.1250 -0.0000 -0.0000 -15.0280 -47.8614 1.0840
-8.8968 17.9513 5.6976 -30.6880 80.0640 -15.6666 0.0000 0.0000 0.0000 -6.3462 -3.6207 -27.4098 2.2779 9.4224 27.1257 0.3873 -3.2580 -11.0881 0.9250 -6.1272 -17.1541 0.0000 0.0000 0.0000 13.7676 12.0098 -27.6598 -1.9438 -8.7481 25.0105 -0.1452 0.0034 -7.1953 -0.0303 1.1243 -3.0910 -1.5647 0.7160 5.3049 3.7014 1.0168 5.5198 4.6864 0.4550 2.6369 2.2963 -0.1572 -11.6451 -4.8411 4.0287 44.4762 -1.7932 2.0461 19.1588 -0.0000 0.0000 0.0000 -93.4965 -18.6124 80.6024 33.4851 -43.6996 -13.7561 -0.0000 0.0000 -63.7912 18.2953 62.0322 16.2785 -7.1250 0.0000 -0.0000 167.7237 3.7445 11.7255 -0.0000 0.0000 0.0000 85.4590 15.9842 74.0001 -36.4229 45.8018 -15.8249 0.0000 -0.0000 -63.1501 -42.8788 -13.7963 12.4859 7.1250 -0.0000 -0.0000 -15.0849 -47.9163 1.1091
-8.8958 17.9506 5.6933 -31.0592 80.1499 -16.0421 0.0000 0.0000 0.0000 -6.3458 -3.6460 -27.4304 2.2778 9.4222 27.1250 0.3875 -3.3132 -11.0876 0.9595 -6.2371 -17.4739 0.0000 0.0000 0.0000 13.8002 11.8750 -27.6506 -1.9376 -8.7348 24.9691 -0.1450 0.0009 -7.1901 -0.0361 1.2265 -3.3724 -1.4627 0.7076 5.3063 3.6946 1.0094 5.5253 4.6216 0.4550 2.6437 2.3447 -0.1811 -11.6958 -4.8826 4.0111 44.5479 -1.8270 2.0443 19.2225 0.0000 -0.0000 0.0000 -93.4798 -18.6232 80.6482 33.4995 -43.7104 -13.7660 -0.0000 0.0000 -63.9088 18.7621 62.0134 16.6975 -7.1250 0.0000 -0.0000 167.8672 3.7763 11.5745 0.0000 -0.0000 0.0000 85.3926 15.9601 74.0264 -36.5115 45.8617 -15.8885 0.0000 -0.0000 -63.2341 -42.8565 -13.8844 12.5521 7.1250 -0.0000 -0.0000 -15.0761 -48.0240 1.1492
-8.8941 17.9511 5.6930 -31.1575 80.2310 -16.1385 0.0000 0.0000 0.0000 -6.3899 -3.6273 -27.4641 2.2768 9.4202 27.1190 0.3897 -3.4475 -11.1139 0.8982 -6.0402 -16.9010 0.0000 0.0000 0.0000 13.7749 11.8246 -27.6253 -1.9301 -8.7189 24.9199 -0.1440 -0.0473 -7.1833 -0.0372 1.2454 -3.4244 -1.5603 0.7049 5.2631 3.7668 1.0028 5.5394 4.7541 0.4468 2.6814 2.2472 -0.1826 -11.6830 -4.8983 4.0500 44.5358 -1.8086 2.0426 19.2126 0.0000 0.0000 0.0000 -93.6191 -18.6110 80.5510 33.4540 -43.6761 -13.7346 -0.0000 0.0000 -63.9195 19.3483 61.7630 17.1897 -7.1250 0.0000 -0.0000 168.0940 3.6008 11.3876 0.0000 0.0000 0.0000 85.3025 15.9812 74.0757 -36.5079 45.8593 -15.8859 0.0000 -0.0000 -63.4442 -42.9718 -13.7226 12.4618 7.1250 -0.0000 -0.0000 -15.1685 -47.8406 1.0866
